HIERARCHY
ROOT Hips
{
  OFFSET -21.6994 31.6921 0
  CHANNELS 6 Xposition Yposition Zposition Zrotation Xrotation Yrotation
  JOINT Bip01_Pelvis
  {
    OFFSET 0 0 0
    CHANNELS 6 Xposition Yposition Zposition Zrotation Xrotation Yrotation
    JOINT BN_Tail_01
    {
      OFFSET -7.25226 -1.74978 0
      CHANNELS 6 Xposition Yposition Zposition Zrotation Xrotation Yrotation
      JOINT BN_Tail_02
      {
        OFFSET 15.788 0 0
        CHANNELS 6 Xposition Yposition Zposition Zrotation Xrotation Yrotation
        JOINT BN_Tail_03
        {
          OFFSET 16.0015 0 0
          CHANNELS 6 Xposition Yposition Zposition Zrotation Xrotation Yrotation
          JOINT BN_Tail_04
          {
            OFFSET 16.1689 0 0
            CHANNELS 6 Xposition Yposition Zposition Zrotation Xrotation Yrotation
            End Site
            {
              OFFSET 0 0 0
            }
          }
        }
      }
    }
    JOINT Bip01_Spine
    {
      OFFSET 6.38383 2.70859 0.585432
      CHANNELS 6 Xposition Yposition Zposition Zrotation Xrotation Yrotation
      JOINT BN_Mane_02
      {
        OFFSET 6.12662 8.45826 0
        CHANNELS 6 Xposition Yposition Zposition Zrotation Xrotation Yrotation
        End Site
        {
          OFFSET 0 0 0
        }
      }
      JOINT Bip01_R_Thigh
      {
        OFFSET -7.04074 -2.18223 -5.47025
        CHANNELS 6 Xposition Yposition Zposition Zrotation Xrotation Yrotation
        JOINT Bip01_R_Calf
        {
          OFFSET 13.6591 0 0
          CHANNELS 6 Xposition Yposition Zposition Zrotation Xrotation Yrotation
          JOINT Bip01_R_HorseLink
          {
            OFFSET 9.07516 0 0
            CHANNELS 6 Xposition Yposition Zposition Zrotation Xrotation Yrotation
            JOINT Bip01_R_Foot
            {
              OFFSET 8.13856 0 0
              CHANNELS 6 Xposition Yposition Zposition Zrotation Xrotation Yrotation
              JOINT Bip01_R_Toe0
              {
                OFFSET 3.79737 6.30086 0
                CHANNELS 6 Xposition Yposition Zposition Zrotation Xrotation Yrotation
                JOINT Bip01_R_Toe0Nub
                {
                  OFFSET 0.838764 0 0
                  CHANNELS 6 Xposition Yposition Zposition Zrotation Xrotation Yrotation
                  End Site
                  {
                    OFFSET 0 0 0
                  }
                }
              }
            }
          }
        }
      }
      JOINT Bip01_L_Thigh
      {
        OFFSET -6.18667 -2.14873 5.3508
        CHANNELS 6 Xposition Yposition Zposition Zrotation Xrotation Yrotation
        JOINT Bip01_L_Calf
        {
          OFFSET 13.6591 0 0
          CHANNELS 6 Xposition Yposition Zposition Zrotation Xrotation Yrotation
          JOINT Bip01_L_HorseLink
          {
            OFFSET 9.07515 0 0
            CHANNELS 6 Xposition Yposition Zposition Zrotation Xrotation Yrotation
            JOINT Bip01_L_Foot
            {
              OFFSET 8.13856 0 0
              CHANNELS 6 Xposition Yposition Zposition Zrotation Xrotation Yrotation
              JOINT Bip01_L_Toe0
              {
                OFFSET 3.79737 6.30086 0
                CHANNELS 6 Xposition Yposition Zposition Zrotation Xrotation Yrotation
                JOINT Bip01_L_Toe0Nub
                {
                  OFFSET 0.838764 0 0
                  CHANNELS 6 Xposition Yposition Zposition Zrotation Xrotation Yrotation
                  End Site
                  {
                    OFFSET 0 0 0
                  }
                }
              }
            }
          }
        }
      }
      JOINT Bip01_Spine1
      {
        OFFSET 12.1687 -0.0105438 0
        CHANNELS 6 Xposition Yposition Zposition Zrotation Xrotation Yrotation
        JOINT BN_Mane_R_01
        {
          OFFSET -0.157498 5.09008 -6.54008
          CHANNELS 6 Xposition Yposition Zposition Zrotation Xrotation Yrotation
          End Site
          {
            OFFSET 0 0 0
          }
        }
        JOINT BN_Mane_R_02
        {
          OFFSET -0.1575 5.09007 6.54
          CHANNELS 6 Xposition Yposition Zposition Zrotation Xrotation Yrotation
          End Site
          {
            OFFSET 0 0 0
          }
        }
        JOINT BN_Mane_01
        {
          OFFSET 8.29709 8.50414 0
          CHANNELS 6 Xposition Yposition Zposition Zrotation Xrotation Yrotation
          End Site
          {
            OFFSET 0 0 0
          }
        }
        JOINT Bip01_Spine2
        {
          OFFSET 13.2802 -0.0100708 1.51992e-005
          CHANNELS 6 Xposition Yposition Zposition Zrotation Xrotation Yrotation
          JOINT Bip01_Neck
          {
            OFFSET 12.4891 -6.66662 0
            CHANNELS 6 Xposition Yposition Zposition Zrotation Xrotation Yrotation
            JOINT Bip01_R_Clavicle
            {
              OFFSET -7.4542 -2.82621 -1.17874
              CHANNELS 6 Xposition Yposition Zposition Zrotation Xrotation Yrotation
              JOINT Bip01_R_UpperArm
              {
                OFFSET 13.2557 0 0
                CHANNELS 6 Xposition Yposition Zposition Zrotation Xrotation Yrotation
                JOINT Bip01_R_Forearm
                {
                  OFFSET 12.8897 0 0
                  CHANNELS 6 Xposition Yposition Zposition Zrotation Xrotation Yrotation
                  JOINT Bip01_R_Hand
                  {
                    OFFSET 11.2622 0 0
                    CHANNELS 6 Xposition Yposition Zposition Zrotation Xrotation Yrotation
                    JOINT Bip01_R_Finger0
                    {
                      OFFSET 3.98015 -0.208661 -0.0949803
                      CHANNELS 6 Xposition Yposition Zposition Zrotation Xrotation Yrotation
                      JOINT Bip01_R_Finger0Nub
                      {
                        OFFSET 6.57561 0 0
                        CHANNELS 6 Xposition Yposition Zposition Zrotation Xrotation Yrotation
                        End Site
                        {
                          OFFSET 0 0 0
                        }
                      }
                    }
                  }
                }
              }
            }
            JOINT Bip01_L_Clavicle
            {
              OFFSET -7.4541 -2.82679 1.17708
              CHANNELS 6 Xposition Yposition Zposition Zrotation Xrotation Yrotation
              JOINT Bip01_L_UpperArm
              {
                OFFSET 13.2558 0 0
                CHANNELS 6 Xposition Yposition Zposition Zrotation Xrotation Yrotation
                JOINT Bip01_L_Forearm
                {
                  OFFSET 12.8897 0 0
                  CHANNELS 6 Xposition Yposition Zposition Zrotation Xrotation Yrotation
                  JOINT Bip01_L_Hand
                  {
                    OFFSET 11.2622 0 0
                    CHANNELS 6 Xposition Yposition Zposition Zrotation Xrotation Yrotation
                    JOINT Bip01_L_Finger0
                    {
                      OFFSET 3.98014 -0.20866 0.0949764
                      CHANNELS 6 Xposition Yposition Zposition Zrotation Xrotation Yrotation
                      JOINT Bip01_L_Finger0Nub
                      {
                        OFFSET 6.57562 0 0
                        CHANNELS 6 Xposition Yposition Zposition Zrotation Xrotation Yrotation
                        End Site
                        {
                          OFFSET 0 0 0
                        }
                      }
                    }
                  }
                }
              }
            }
            JOINT Bip01_Neck1
            {
              OFFSET 4.19352 -0.00332451 0
              CHANNELS 6 Xposition Yposition Zposition Zrotation Xrotation Yrotation
              JOINT Bip01_Head
              {
                OFFSET 4.17604 0.298252 0
                CHANNELS 6 Xposition Yposition Zposition Zrotation Xrotation Yrotation
                JOINT BN_Eye_R_01
                {
                  OFFSET 6.53258 -3.90694 -2.55361
                  CHANNELS 6 Xposition Yposition Zposition Zrotation Xrotation Yrotation
                  End Site
                  {
                    OFFSET 0 0 0
                  }
                }
                JOINT BN_Eye_L_01
                {
                  OFFSET 6.5326 -3.90694 2.55371
                  CHANNELS 6 Xposition Yposition Zposition Zrotation Xrotation Yrotation
                  End Site
                  {
                    OFFSET 0 0 0
                  }
                }
                JOINT BN_Ear_R_01
                {
                  OFFSET 1.75934 -4.1584 -4.45634
                  CHANNELS 6 Xposition Yposition Zposition Zrotation Xrotation Yrotation
                  End Site
                  {
                    OFFSET 0 0 0
                  }
                }
                JOINT BN_Ear_L_01
                {
                  OFFSET 1.75933 -4.15841 4.45616
                  CHANNELS 6 Xposition Yposition Zposition Zrotation Xrotation Yrotation
                  End Site
                  {
                    OFFSET 0 0 0
                  }
                }
                JOINT BN_Beard_L_01
                {
                  OFFSET 11.2964 -1.06183 2.32054
                  CHANNELS 6 Xposition Yposition Zposition Zrotation Xrotation Yrotation
                  End Site
                  {
                    OFFSET 0 0 0
                  }
                }
                JOINT BN_Beard_R_01
                {
                  OFFSET 11.2964 -1.06182 -2.32036
                  CHANNELS 6 Xposition Yposition Zposition Zrotation Xrotation Yrotation
                  End Site
                  {
                    OFFSET 0 0 0
                  }
                }
                JOINT BN_Mouth_0
                {
                  OFFSET 1.3149 1.30001 0
                  CHANNELS 6 Xposition Yposition Zposition Zrotation Xrotation Yrotation
                  End Site
                  {
                    OFFSET 0 0 0
                  }
                }
                JOINT Bip01_HeadNub
                {
                  OFFSET 12.6869 0 0
                  CHANNELS 6 Xposition Yposition Zposition Zrotation Xrotation Yrotation
                  End Site
                  {
                    OFFSET 0 0 0
                  }
                }
              }
            }
          }
        }
      }
    }
  }
}
MOTION
Frames:	4
Frame Time:	0.0333333
-12.2665 24.3683 3.62791e-007 0.134163 -90 90 0 1.13687e-013 0 -89.9974 1.6522 -89.9978 -7.25225 -1.74978 2.91044e-011 27.6352 4.50429 174.019 15.788 3.8147e-006 4.26326e-014 -36.924 18.2948 14.2793 16.0015 3.55271e-015 8.88178e-016 -61.7826 79.4596 43.0039 16.1689 -3.8147e-006 -3.8147e-006 -4.72982 6.1786 6.30826 6.33245 2.89308 -2.91047e-011 2.9913 -0.00906577 2.46677 6.12662 8.45826 4.51221e-009 -105.009 12.7012 178.876 -6.23213 -2.55702 -5.70169 -83.223 5.29797 173.931 13.6591 -8.88179e-015 -4.76837e-007 -79.8302 1.53925e-006 9.76861e-006 9.07515 3.8147e-006 8.88178e-015 62.2725 9.48466e-007 -1.12421e-006 8.13856 3.8147e-006 0.000670433 28.5864 3.88935 5.11031 3.79726 6.30091 0.000694275 87.6414 -2.83241e-008 -4.45453e-010 0.83877 5.96046e-008 0 2.82888e-008 -5.35084e-010 -1.85155e-009 -6.69993 -2.55888 5.14298 -100.935 0.543673 -174.13 13.6591 4.76837e-007 8.88178e-016 -105.96 -1.21824e-005 6.6691e-006 9.07516 -1.77636e-015 7.99361e-015 78.3562 2.55121e-006 -9.62471e-006 8.13856 -7.10543e-015 4.76837e-007 10.7628 -8.49379 -5.75336 3.79737 6.30085 9.32019e-007 97.1275 -1.03234 -8.1466 0.838765 3.16414e-015 9.53674e-007 -179.96 0.000181118 -0.000158999 12.1681 -0.0104809 2.35125e-011 3.02885 -0.0257061 -0.485811 -0.157499 5.09008 -6.54008 -92.7121 1.39056 131.647 -0.157503 5.09007 6.54 79.6797 14.0235 -17.4313 8.29709 8.50413 7.29661e-009 -104.43 -0.000103288 165.243 13.2792 -0.00986099 -6.66694e-011 9.43409 -0.344669 0.628494 12.4882 -6.66643 -1.83327e-008 -20.3519 -0.0563758 4.01632 -6.29267 -4.7586 -1.62752 -154.004 -56.1204 110.953 13.2557 -1.74083e-013 -1.90735e-006 74.3515 72.9212 -103.75 12.8897 -1.90735e-006 -9.53674e-007 -103.424 4.42918e-006 -1.71878e-005 11.2622 4.76837e-007 0 -77.8888 72.9178 95.8465 3.98015 -0.208658 -0.0949803 1.93195 8.323 -20.2215 6.57561 -1.19209e-007 -1.19209e-007 179.96 -1.00316e-005 1.73038e-005 -6.45773 -4.76093 0.722521 -165.4 56.4881 -86.7742 13.2558 -1.90735e-006 7.10543e-015 66.7418 -61.3654 74.0766 12.8897 1.06581e-014 9.53674e-007 -115.987 -1.0875e-006 1.29732e-006 11.2622 -1.90735e-006 -9.53674e-007 -131.212 -56.5308 176.778 3.98015 -0.208661 0.0949783 10.0613 3.82808 62.6245 6.57563 -7.10542e-015 1.4877e-014 1.46954e-007 -1.12795e-009 -5.55533e-009 4.195 -0.00313282 9.45066e-011 22.736 -0.175464 3.58159 4.17603 0.298256 3.34761e-009 34.101 -5.85328 1.13003 6.53259 -3.90694 -2.55361 133.022 18.1127 163.581 6.5326 -3.90695 2.55371 -46.9761 18.1111 -16.4185 1.75935 -4.1584 -4.45634 28.5362 -51.4263 157.445 1.75933 -4.15841 4.45616 -167.962 -26.675 -47.8974 11.2964 -1.06184 2.32054 169.781 -16.0316 -96.5313 11.2964 -1.06183 -2.32036 -33.2692 -1.0078 51.5652 1.31489 1.30001 2.19283e-008 -175.833 -0.0376587 -179.999 12.6869 -1.90735e-006 1.16371e-010 -4.48321e-008 1.30671e-011 -1.34232e-010 
-12.7716 24.6601 3.44771e-007 0.22641 -90 90 0 1.13687e-013 0 -89.9975 1.65198 -89.9978 -7.25225 -1.74978 2.91047e-011 27.433 5.15802 175.314 15.788 3.8147e-006 3.68594e-014 -38.4041 17.5102 16.248 16.0015 2.30926e-014 -6.21725e-015 -67.8148 78.6381 40.6093 16.1689 -3.8147e-006 -3.8147e-006 -5.60237 0.748339 0.162667 6.33245 2.89308 -2.91052e-011 3.45606 0.00400192 1.75632 6.12662 8.45826 3.70951e-009 -106 12.0005 178.718 -6.32294 -2.50546 -5.62396 -85.4942 4.79156 174.157 13.6591 -3.55271e-015 -4.76837e-007 -79.9351 1.38205e-006 9.84772e-006 9.07515 3.8147e-006 7.99361e-015 60.5844 9.48217e-007 -1.08618e-006 8.13856 3.8147e-006 0.000670433 28.9402 3.93209 5.0769 3.79726 6.30091 0.000694275 87.1818 -0.0048199 -0.000237263 0.83877 5.96046e-008 3.55271e-015 2.82888e-008 -5.35084e-010 -1.85155e-009 -6.65597 -2.50521 5.22569 -103.071 -0.286383 -174.319 13.6591 4.76837e-007 1.77636e-015 -105.346 -1.21176e-005 6.76969e-006 9.07516 0 8.88178e-015 76.6789 2.86249e-006 -9.57283e-006 8.13856 -3.55271e-015 4.76837e-007 10.435 -8.50786 -5.6903 3.79737 6.30085 9.31629e-007 96.6434 -0.967424 -8.18249 0.838765 -1.80411e-015 9.53674e-007 -179.96 0.000181118 -0.000158999 12.1681 -0.0104809 2.45076e-011 5.07955 -0.00309291 -0.0347961 -0.157499 5.09008 -6.54008 -92.7347 1.71327 132.824 -0.157503 5.09007 6.54 77.8437 14.9827 -21.6511 8.29709 8.50413 8.9023e-009 -105.469 -0.00449026 164.76 13.2792 -0.00986099 -6.85323e-011 12.1956 -0.363219 0.682433 12.4882 -6.66643 -2.14115e-008 -20.8108 -0.0999229 4.84367 -6.22986 -4.80905 -1.71874 -152.436 -55.7391 112.358 13.2557 -2.0961e-013 -1.90735e-006 97.3739 80.3245 -125.633 12.8897 -1.90735e-006 -9.53674e-007 -105.468 4.93972e-006 -1.69292e-005 11.2622 4.76837e-007 8.88179e-015 -73.9597 74.0853 96.5403 3.98015 -0.208658 -0.0949803 1.9276 8.31452 -18.8198 6.57561 -1.19209e-007 -1.19209e-007 179.96 -1.00316e-005 1.73037e-005 -6.42895 -4.81308 0.628655 -166.156 56.6851 -85.3119 13.2558 -1.90735e-006 -1.42109e-014 69.0734 -70.3516 75.0341 12.8897 8.88178e-015 9.53674e-007 -118.828 -8.79224e-006 -2.98435e-006 11.2622 -1.90735e-006 -9.53674e-007 -126.835 -55.683 174.052 3.98015 -0.208661 0.0949783 10.0134 3.92305 62.805 6.57563 -1.77636e-015 7.77155e-015 1.46954e-007 -1.12795e-009 -5.55533e-009 4.195 -0.00313282 8.75544e-011 24.1047 -0.282488 3.61901 4.17603 0.298256 4.56175e-009 33.1571 -5.56681 1.19091 6.53259 -3.90694 -2.55361 133.022 18.1127 163.581 6.5326 -3.90695 2.55371 -46.9761 18.1111 -16.4186 1.75935 -4.1584 -4.45634 28.1768 -51.6181 157.641 1.75933 -4.15841 4.45616 -168.52 -26.4805 -48.0003 11.2964 -1.06184 2.32054 169.811 -13.4993 -94.8494 11.2964 -1.06183 -2.32036 -33.4416 -0.896244 52.4738 1.31489 1.30001 2.14461e-008 -175.812 -0.0385895 -179.999 12.6869 -1.90735e-006 1.16374e-010 -4.48321e-008 1.30675e-011 -1.34235e-010 
-13.3091 25.0476 3.26667e-007 0.285599 -90 90 0 1.13687e-013 0 -89.9973 1.65197 -89.9978 -7.25225 -1.74978 2.91036e-011 27.1219 5.80249 176.574 15.788 3.8147e-006 3.01981e-014 -39.7782 16.743 18.135 16.0015 1.24345e-014 1.77636e-015 -73.3257 77.6439 38.0469 16.1689 -3.8147e-006 -3.8147e-006 -7.72288 -4.42507 -5.74838 6.33245 2.89308 -2.91035e-011 3.80849 0.00933269 1.22309 6.12662 8.45826 2.84357e-009 -106.36 11.3909 178.666 -6.39038 -2.46608 -5.56471 -87.7916 4.43239 174.376 13.6591 -3.55271e-015 -4.76837e-007 -79.5304 1.66562e-006 9.85451e-006 9.07515 3.8147e-006 2.66454e-015 58.2419 9.5142e-007 -1.03391e-006 8.13856 3.8147e-006 0.000670433 29.1992 3.93905 5.05083 3.79726 6.30091 0.000694275 86.9792 -0.00318208 -0.000167925 0.83877 5.96046e-008 1.06581e-014 2.82888e-008 -5.35084e-010 -1.85155e-009 -6.62213 -2.46447 5.28757 -104.743 -0.867043 -174.545 13.6591 4.76837e-007 0 -103.798 -1.19425e-005 7.07371e-006 9.07516 -1.77636e-015 7.10543e-015 75.1445 3.13844e-006 -9.521e-006 8.13856 0 4.76837e-007 9.67003 -8.5917 -5.58715 3.79737 6.30085 9.31627e-007 96.1505 -0.901017 -8.21947 0.838765 -4.13558e-015 9.53674e-007 -179.96 0.000181118 -0.000158999 12.1681 -0.0104809 2.55805e-011 6.23605 0.0433701 0.396896 -0.157499 5.09008 -6.54008 -92.7647 2.03994 134.017 -0.157503 5.09007 6.54 76.4852 15.6368 -25.0683 8.29709 8.50413 9.79354e-009 -106.511 -0.000117502 164.275 13.2792 -0.00986099 -6.9566e-011 13.6245 -0.331707 0.848181 12.4882 -6.66643 -2.42342e-008 -21.0473 -0.121836 5.58463 -6.18751 -4.83498 -1.79911 -151.26 -55.3433 113.622 13.2557 -2.13163e-013 -1.90735e-006 138.386 83.4294 -166.148 12.8897 -1.90735e-006 -9.53674e-007 -104.141 4.50506e-006 -1.69044e-005 11.2622 4.76837e-007 1.77636e-015 -72.338 74.6673 95.9995 3.98015 -0.208658 -0.0949803 1.92721 8.3144 -17.4832 6.57561 -1.19209e-007 -1.19209e-007 179.96 -1.00316e-005 1.73036e-005 -6.41691 -4.8399 0.545524 -167.017 56.8536 -83.9951 13.2558 -1.90735e-006 -7.10543e-015 70.6527 -76.8692 75.8611 12.8897 1.24345e-014 9.53674e-007 -118.629 -8.68058e-006 -3.05547e-006 11.2622 -1.90735e-006 -9.53674e-007 -124.61 -55.1598 172.438 3.98015 -0.208661 0.0949783 9.96473 4.01879 62.9874 6.57563 -7.10542e-015 -2.22044e-016 1.46954e-007 -1.12795e-009 -5.55533e-009 4.195 -0.00313282 8.28093e-011 24.8433 -0.323462 3.73689 4.17603 0.298256 5.44895e-009 33.9261 -5.84194 1.04607 6.53259 -3.90694 -2.55361 133.022 18.1126 163.581 6.5326 -3.90695 2.55371 -46.9761 18.1112 -16.4184 1.75935 -4.1584 -4.45634 28.5709 -50.9135 157.178 1.75933 -4.15841 4.45616 -167.5 -27.1272 -47.4175 11.2964 -1.06184 2.32054 169.306 -9.00564 -92.7122 11.2964 -1.06183 -2.32036 -33.6173 -0.786376 53.3915 1.31489 1.30001 2.01262e-008 -175.791 -0.0395203 -179.999 12.6869 -1.90735e-006 1.1638e-010 -4.48321e-008 1.30689e-011 -1.34231e-010 
-13.8473 25.4871 3.09252e-007 -179.685 -90 -90 0 1.13687e-013 0 -89.9974 1.6521 -89.9978 -7.25225 -1.74978 2.91043e-011 26.7498 6.40069 177.739 15.788 3.8147e-006 2.66454e-014 -41.018 16.0386 19.8636 16.0015 2.13163e-014 -3.55271e-015 -78.1761 76.54 35.6132 16.1689 -3.8147e-006 -3.8147e-006 -10.7318 -8.87751 -11.2038 6.33245 2.89308 -2.91047e-011 4.08555 0.0123239 0.737936 6.12662 8.45826 1.83685e-009 -106.252 10.8734 178.81 -6.44899 -2.43491 -5.51065 -89.9791 4.12575 174.542 13.6591 0 -4.76837e-007 -78.695 1.85776e-006 9.87531e-006 9.07515 3.8147e-006 3.55271e-015 55.4969 9.57675e-007 -9.71855e-007 8.13856 3.8147e-006 0.000670433 29.3648 3.94015 5.02164 3.79726 6.30091 0.000694275 86.7805 -0.00159938 -8.99656e-005 0.83877 5.96047e-008 1.77636e-015 2.82888e-008 -5.35084e-010 -1.85155e-009 -6.58925 -2.43264 5.34319 -105.943 -1.33245 -174.795 13.6591 4.76837e-007 3.55271e-015 -101.569 -1.16715e-005 7.51961e-006 9.07516 0 5.32907e-015 73.8307 3.36694e-006 -9.47152e-006 8.13856 3.55271e-015 4.76837e-007 8.60202 -8.73242 -5.46129 3.79737 6.30085 9.319e-007 95.2738 -0.781525 -8.38485 0.838765 7.6536e-015 9.53674e-007 -179.96 0.000181118 -0.000158999 12.1681 -0.0104809 2.6828e-011 7.06752 0.109339 0.881829 -0.157499 5.09008 -6.54008 -92.8492 2.50733 135.534 -0.157503 5.09007 6.54 75.6464 15.9976 -27.3019 8.29709 8.50413 1.08298e-008 -106.894 -0.000763113 164.103 13.2792 -0.00986099 -7.07676e-011 14.6437 -0.2814 1.04811 12.4882 -6.66643 -2.78146e-008 -21.109 -0.123942 6.22316 -6.16295 -4.84154 -1.86743 -150.436 -54.9482 114.714 13.2557 -2.27374e-013 -1.90735e-006 -178.541 82.3628 151.026 12.8897 -1.90735e-006 -9.53675e-007 -101.541 3.71372e-006 -1.69526e-005 11.2622 4.76837e-007 5.32907e-015 -71.7292 74.9277 95.0352 3.98015 -0.208658 -0.0949803 1.93018 8.31431 -16.262 6.57561 -1.19209e-007 -1.19209e-007 179.96 -1.00316e-005 1.73036e-005 -6.41833 -4.84658 0.47451 -167.91 56.995 -82.8614 13.2558 -1.90735e-006 -3.73035e-014 72.7568 -82.2686 77.4301 12.8897 2.13163e-014 9.53674e-007 -117.238 -1.22172e-006 7.78494e-007 11.2622 -1.90735e-006 -9.53674e-007 -123.444 -54.7776 171.332 3.98015 -0.208661 0.0949783 9.91671 4.11252 63.1664 6.57563 -7.10542e-015 7.88257e-015 1.46954e-007 -1.12795e-009 -5.55533e-009 4.195 -0.00313282 7.83134e-011 25.0682 -0.311243 3.90325 4.17603 0.298256 6.2322e-009 34.855 -6.38408 0.739507 6.53259 -3.90694 -2.55361 133.022 18.1127 163.581 6.5326 -3.90695 2.55371 -46.9761 18.1112 -16.4184 1.75935 -4.1584 -4.45634 29.6833 -49.0858 156.004 1.75933 -4.15841 4.45616 -164.732 -28.8467 -45.9048 11.2964 -1.06184 2.32054 168.848 -3.62915 -90.8044 11.2964 -1.06183 -2.32036 -33.7914 -0.6814 54.2918 1.31489 1.30001 1.85533e-008 -175.771 -0.0404358 -179.999 12.6869 -1.90735e-006 1.16379e-010 -4.48321e-008 1.30673e-011 -1.34231e-010 
